<svg width="213" height="141" viewBox="0 0 213 141" fill="none" xmlns="http://www.w3.org/2000/svg">
<path d="M0.5 -1.5C39.5 54.1667 135 159.8 205 137C292.5 108.5 176 -4.5 149 -7.5" stroke="white" stroke-linecap="round" stroke-linejoin="round"/>
<path d="M1.5 -4.5C40.5 51.1667 136 156.8 206 134C293.5 105.5 177 -7.5 150 -10.5" stroke="white" stroke-linecap="round" stroke-linejoin="round"/>
<path d="M2.5 -7.5C41.5 48.1667 137 153.8 207 131C294.5 102.5 178 -10.5 151 -13.5" stroke="white" stroke-linecap="round" stroke-linejoin="round"/>
<path d="M3.5 -10.5C42.5 45.1667 138 150.8 208 128C295.5 99.5 179 -13.5 152 -16.5" stroke="white" stroke-linecap="round" stroke-linejoin="round"/>
<path d="M4.5 -13.5C43.5 42.1667 139 147.8 209 125C296.5 96.5 180 -16.5 153 -19.5" stroke="white" stroke-linecap="round" stroke-linejoin="round"/>
<path d="M5.5 -16.5C44.5 39.1667 140 144.8 210 122C297.5 93.5 181 -19.5 154 -22.5" stroke="white" stroke-linecap="round" stroke-linejoin="round"/>
<path d="M6.5 -19.5C45.5 36.1667 141 141.8 211 119C298.5 90.5 182 -22.5 155 -25.5" stroke="white" stroke-linecap="round" stroke-linejoin="round"/>
<path d="M7.5 -22.5C46.5 33.1667 142 138.8 212 116C299.5 87.5 183 -25.5 156 -28.5" stroke="white" stroke-linecap="round" stroke-linejoin="round"/>
</svg>
